<svg width="50" height="50" viewBox="0 0 50 50" fill="none"
  xmlns="http://www.w3.org/2000/svg">

  <!-- skills -->
  <g id="code">
    <path d="M18.3125 42.0645L27.2623 6.6875L31.4375 7.87244L22.4878 43.3125L18.3125 42.0645Z" fill="#E3CB9D" fill-opacity="1.000000" fill-rule="evenodd"/>
    <path d="M13.5025 12.6875L16.5625 15.9277L7.99501 25.0001L16.5625 34.0721L13.5025 37.3125L1.875 25.0001L13.5025 12.6875Z" fill="#E3CB9D" fill-opacity="1.000000" fill-rule="evenodd"/>
    <path d="M36.4976 12.6875L33.4375 15.9277L42.0051 25.0001L33.4375 34.0721L36.4976 37.3125L48.125 25.0001L36.4976 12.6875Z" fill="#E3CB9D" fill-opacity="1.000000" fill-rule="evenodd"/>
  </g>

  <g id="html">
    <path style=" stroke:none;fill-rule:nonzero;fill:rgb(89.411765%,30.980392%,14.901961%);fill-opacity:1;" d="M 9.222656 42.5 L 5.710938 3.125 L 44.289062 3.125 L 40.773438 42.496094 L 24.976562 46.875 Z M 9.222656 42.5 "/>
    <path style=" stroke:none;fill-rule:nonzero;fill:rgb(94.509804%,40%,16.470588%);fill-opacity:1;" d="M 25 43.527344 L 37.765625 39.988281 L 40.769531 6.34375 L 25 6.34375 Z M 25 43.527344 "/>
    <path style=" stroke:none;fill-rule:nonzero;fill:rgb(92.156863%,92.156863%,92.156863%);fill-opacity:1;" d="M 25 20.949219 L 18.609375 20.949219 L 18.167969 16.003906 L 25 16.003906 L 25 11.171875 L 12.890625 11.171875 L 13.007812 12.46875 L 14.191406 25.777344 L 25 25.777344 Z M 25 33.492188 L 24.976562 33.496094 L 19.601562 32.046875 L 19.257812 28.195312 L 14.40625 28.195312 L 15.085938 35.773438 L 24.976562 38.523438 L 25 38.515625 Z M 25 33.492188 "/>
    <path style=" stroke:none;fill-rule:nonzero;fill:rgb(100%,100%,100%);fill-opacity:1;" d="M 24.984375 20.949219 L 24.984375 25.777344 L 30.929688 25.777344 L 30.371094 32.042969 L 24.984375 33.496094 L 24.984375 38.519531 L 34.882812 35.773438 L 34.957031 34.960938 L 36.089844 22.246094 L 36.210938 20.949219 Z M 24.984375 11.171875 L 24.984375 16.003906 L 36.648438 16.003906 L 36.746094 14.917969 L 36.964844 12.46875 L 37.082031 11.171875 Z M 24.984375 11.171875 "/>
  </g>

  <g id="css">
    <path style=" stroke:none;fill-rule:nonzero;fill:rgb(8.235294%,44.705882%,71.372549%);fill-opacity:1;" d="M 9.222656 41.652344 L 5.710938 3.0625 L 44.289062 3.0625 L 40.773438 41.644531 L 24.976562 45.9375 Z M 9.222656 41.652344 "/>
    <path style=" stroke:none;fill-rule:nonzero;fill:rgb(20%,66.27451%,86.27451%);fill-opacity:1;" d="M 25 42.65625 L 37.765625 39.1875 L 40.769531 6.21875 L 25 6.21875 Z M 25 42.65625 "/>
    <path style=" stroke:none;fill-rule:nonzero;fill:rgb(100%,100%,100%);fill-opacity:1;" d="M 25 20.199219 L 31.390625 20.199219 L 31.832031 15.351562 L 25 15.351562 L 25 10.621094 L 37.109375 10.621094 L 36.992188 11.886719 L 35.808594 24.933594 L 25 24.933594 Z M 25 20.199219 "/>
    <path style=" stroke:none;fill-rule:nonzero;fill:rgb(92.156863%,92.156863%,92.156863%);fill-opacity:1;" d="M 25.03125 32.488281 L 25.007812 32.496094 L 19.628906 31.070312 L 19.285156 27.296875 L 14.4375 27.296875 L 15.113281 34.730469 L 25.007812 37.421875 L 25.03125 37.414062 Z M 25.03125 32.488281 "/>
    <path style=" stroke:none;fill-rule:nonzero;fill:rgb(100%,100%,100%);fill-opacity:1;" d="M 30.980469 24.730469 L 30.398438 31.070312 L 25.011719 32.492188 L 25.011719 37.417969 L 34.914062 34.730469 L 34.984375 33.929688 L 35.824219 24.730469 Z M 30.980469 24.730469 "/>
    <path style=" stroke:none;fill-rule:nonzero;fill:rgb(92.156863%,92.156863%,92.156863%);fill-opacity:1;" d="M 25.015625 10.621094 L 25.015625 15.351562 L 13.351562 15.351562 L 13.253906 14.289062 L 13.035156 11.886719 L 12.917969 10.621094 Z M 25 20.199219 L 25 24.933594 L 19.6875 24.933594 L 19.59375 23.867188 L 19.375 21.46875 L 19.257812 20.199219 Z M 25 20.199219 "/>
  </g>

  <g id="react">
    <g clip-path="url(#clip0_20_1854)">
      <path d="M47.8125 25C47.8125 22.0833 44.6875 19.375 39.4792 17.5L38.5417 17.1875V16.7708C39.6875 11.0416 38.8542 6.7708 36.25 5.2083C33.6458 3.6458 29.7917 5.10414 25.625 8.74997L25 9.37497L24.7917 9.16664H24.5833C20.3125 5.2083 16.1458 3.85414 13.5417 5.31247C10.9375 6.7708 10.2083 10.8333 11.25 16.1458C11.3596 16.4838 11.4295 16.8333 11.4583 17.1875L10.3125 17.6041C5.20833 19.375 2.1875 22.0833 2.1875 25C2.1875 27.9166 5.52083 30.8333 10.7292 32.7083L11.4583 32.9166C11.3296 33.2854 11.2593 33.672 11.25 34.0625C10.2083 39.2708 11.1458 43.2291 13.5417 44.6875C15.9375 46.1458 20.3125 44.7916 24.4792 41.1458L25.1042 40.625L25.9375 41.4583C28.8542 43.9583 31.7708 45.3125 34.0625 45.3125C34.8708 45.3309 35.6671 45.1137 36.3542 44.6875C38.9583 43.2291 39.8958 38.9583 38.75 33.5416V33.3333C38.705 33.1619 38.6702 32.988 38.6458 32.8125H38.9583C44.4792 30.8333 47.8125 28.0208 47.8125 25ZM44.7917 25C44.7917 26.25 42.5 28.4375 38.0208 29.8958H37.8125C37.2664 28.2202 36.6051 26.5843 35.8333 25C36.5625 23.3333 37.1875 21.6666 37.7083 20.1041L38.5417 20.3125C42.7083 21.7708 44.7917 23.75 44.7917 25ZM27.9167 39.1666L27.0833 38.5416C28.2761 37.2201 29.3891 35.8287 30.4167 34.375L35.7292 33.5416C35.8333 33.75 35.8333 33.9583 35.9375 34.0625C36.3087 35.9492 36.379 37.8829 36.1458 39.7916C35.9995 40.7045 35.5608 41.5452 34.8958 42.1875C33.8542 42.8125 31.0417 41.9791 27.9167 39.1666ZM26.5625 34.5833L25.1042 36.4583L23.4375 34.5833H26.5625ZM12.2917 20C12.8152 21.7174 13.4771 23.3895 14.2708 25C13.4765 26.646 12.8146 28.3528 12.2917 30.1041L11.6667 29.8958C9.84256 29.3201 8.1454 28.4008 6.66667 27.1875C6.28377 26.9455 5.95605 26.6257 5.7048 26.2488C5.45356 25.872 5.2844 25.4465 5.20833 25C5.20833 23.75 7.29167 21.7708 11.25 20.4166L12.2917 20ZM23.4375 15.4166L25 13.6458L26.5625 15.4166H23.4375ZM34.8958 7.81247C36.0417 8.43747 36.6667 11.5625 35.7292 16.1458C35.734 16.2022 35.7272 16.2591 35.7093 16.3128C35.6914 16.3665 35.6627 16.416 35.625 16.4583L30.4167 15.625C29.3891 14.1712 28.2761 12.7799 27.0833 11.4583L27.7083 10.9375C31.0417 8.0208 33.75 7.18747 34.8958 7.81247ZM17.5 18.8541L16.6667 20.2083L15.9375 21.5625C15.625 20.8333 15.4167 20.1041 15.1042 19.2708L17.5 18.8541ZM15.1042 30.7291C15.4167 30 15.625 29.2708 15.9375 28.4375L16.6667 29.7916L17.5 31.1458L15.1042 30.7291ZM32.5 25C31.9699 26.142 31.3788 27.2548 30.7292 28.3333C30.1042 29.4791 29.375 30.5208 28.75 31.5625H21.25C20.5208 30.4166 19.7917 29.375 19.2708 28.3333C18.6161 27.2577 18.0248 26.1447 17.5 25C18.0054 23.8458 18.5974 22.7315 19.2708 21.6666C19.8693 20.5874 20.5301 19.544 21.25 18.5416C23.7457 18.3334 26.2543 18.3334 28.75 18.5416C29.4792 19.5833 30.1042 20.625 30.7292 21.6666C31.4026 22.7315 31.9946 23.8458 32.5 25ZM33.3333 20.2083L32.5 18.8541L34.8958 19.375C34.6639 20.1208 34.3856 20.8514 34.0625 21.5625L33.3333 20.2083ZM32.5 31.1458L33.3333 29.7916L34.0625 28.3333L35 30.7291L32.5 31.1458ZM22.8125 11.3541H22.9167L19.5833 15.5208L14.375 16.3541C14.2708 16.0416 14.2708 15.8333 14.1667 15.5208C13.3333 11.25 13.9583 8.3333 15 7.81247C15.2766 7.63082 15.61 7.55672 15.9375 7.60414C17.3958 7.60414 19.8958 8.6458 22.7083 11.1458L22.8125 11.3541ZM14.1667 34.5833C14.1857 34.2617 14.256 33.9452 14.375 33.6458L19.6875 34.375C20.689 35.8481 21.8034 37.2412 23.0208 38.5416L22.8125 38.75L22.6042 38.9583C21.184 40.2738 19.5211 41.2999 17.7083 41.9791C17.3107 42.1874 16.875 42.3133 16.4275 42.3491C15.98 42.3849 15.5299 42.3299 15.1042 42.1875C13.9583 41.5625 13.3333 38.75 14.1667 34.5833Z" fill="#00D8FF"/>
      <path d="M25 20.4166C24.0894 20.3959 23.1932 20.647 22.4259 21.1379C21.6586 21.6287 21.0549 22.3371 20.692 23.1726C20.3291 24.008 20.2233 24.9327 20.3882 25.8285C20.5532 26.7243 20.9812 27.5507 21.6179 28.2022C22.2545 28.8536 23.0709 29.3006 23.9627 29.4861C24.8545 29.6715 25.7813 29.587 26.6249 29.2434C27.4685 28.8998 28.1905 28.3126 28.6989 27.5568C29.2073 26.801 29.4789 25.9108 29.4792 24.9999C29.4795 23.8022 29.0109 22.6519 28.1738 21.7953C27.3366 20.9387 26.1974 20.4438 25 20.4166Z" fill="#00D8FF"/>
    </g>
    <defs>
      <clipPath id="clip0_20_1854">
        <rect width="50" height="50" fill="white"/>
      </clipPath>
    </defs>
  </g>

  <g id="javaScript">
    <path style=" stroke:none;fill-rule:nonzero;fill:rgb(96.078431%,87.058824%,9.803922%);fill-opacity:1;" d="M 3.125 3.125 L 46.875 3.125 L 46.875 46.875 L 3.125 46.875 Z M 3.125 3.125 "/>
    <path style=" stroke:none;fill-rule:nonzero;fill:rgb(0%,0%,0%);fill-opacity:1;" d="M 32.515625 37.304688 C 32.886719 38.0625 33.464844 38.699219 34.183594 39.140625 C 34.902344 39.582031 35.734375 39.8125 36.578125 39.804688 C 38.28125 39.804688 39.367188 38.953125 39.367188 37.773438 C 39.367188 36.367188 38.25 35.863281 36.375 35.042969 L 35.347656 34.601562 C 32.378906 33.339844 30.410156 31.757812 30.410156 28.410156 C 30.410156 25.328125 32.753906 22.976562 36.429688 22.976562 C 37.621094 22.890625 38.808594 23.160156 39.847656 23.742188 C 40.886719 24.328125 41.734375 25.207031 42.277344 26.269531 L 39.0625 28.324219 C 38.851562 27.796875 38.488281 27.347656 38.015625 27.03125 C 37.546875 26.71875 36.988281 26.554688 36.421875 26.5625 C 36.175781 26.539062 35.925781 26.566406 35.691406 26.640625 C 35.453125 26.71875 35.238281 26.84375 35.050781 27.011719 C 34.867188 27.175781 34.71875 27.378906 34.617188 27.605469 C 34.511719 27.832031 34.457031 28.078125 34.457031 28.324219 C 34.457031 29.558594 35.21875 30.058594 36.984375 30.824219 L 38.011719 31.265625 C 41.507812 32.765625 43.480469 34.289062 43.480469 37.722656 C 43.480469 41.425781 40.574219 43.453125 36.667969 43.453125 C 35.148438 43.550781 33.628906 43.203125 32.300781 42.457031 C 30.972656 41.710938 29.886719 40.597656 29.175781 39.25 Z M 17.992188 37.660156 C 18.636719 38.804688 19.222656 39.773438 20.636719 39.773438 C 21.984375 39.773438 22.839844 39.246094 22.839844 37.191406 L 22.839844 23.210938 L 26.949219 23.210938 L 26.949219 37.246094 C 26.949219 41.503906 24.449219 43.441406 20.8125 43.441406 C 19.523438 43.511719 18.246094 43.191406 17.144531 42.519531 C 16.046875 41.851562 15.171875 40.863281 14.644531 39.691406 Z M 17.992188 37.660156 "/>
  </g>

  <g id="typeScript">
    <path style=" stroke:none;fill-rule:nonzero;fill:rgb(0%,47.843137%,80%);fill-opacity:1;" d="M 0 25 L 0 50 L 50 50 L 50 0 L 0 0 Z M 0 25 "/>
    <path style=" stroke:none;fill-rule:nonzero;fill:rgb(100%,100%,100%);fill-opacity:1;" d="M 11.058594 25.164062 L 11.042969 27.214844 L 17.550781 27.214844 L 17.550781 45.707031 L 22.152344 45.707031 L 22.152344 27.214844 L 28.660156 27.214844 L 28.660156 25.207031 C 28.660156 24.09375 28.636719 23.164062 28.605469 23.140625 C 28.582031 23.109375 24.621094 23.09375 19.820312 23.101562 L 11.082031 23.125 Z M 11.058594 25.164062 "/>
    <path style=" stroke:none;fill-rule:nonzero;fill:rgb(100%,100%,100%);fill-opacity:1;" d="M 40.34375 23.066406 C 41.613281 23.386719 42.582031 23.949219 43.472656 24.871094 C 43.933594 25.363281 44.613281 26.257812 44.671875 26.472656 C 44.6875 26.535156 42.511719 27.996094 41.195312 28.8125 C 41.144531 28.847656 40.957031 28.640625 40.742188 28.320312 C 40.097656 27.386719 39.421875 26.980469 38.390625 26.910156 C 36.875 26.804688 35.898438 27.601562 35.90625 28.925781 C 35.90625 29.3125 35.964844 29.542969 36.121094 29.863281 C 36.457031 30.550781 37.074219 30.964844 39.019531 31.804688 C 42.597656 33.347656 44.128906 34.363281 45.082031 35.804688 C 46.144531 37.417969 46.382812 39.988281 45.660156 41.902344 C 44.867188 43.980469 42.898438 45.394531 40.128906 45.863281 C 39.273438 46.011719 37.242188 45.988281 36.320312 45.820312 C 34.3125 45.464844 32.40625 44.472656 31.234375 43.171875 C 30.773438 42.664062 29.875 41.339844 29.929688 41.242188 C 29.957031 41.210938 30.160156 41.085938 30.390625 40.949219 C 30.613281 40.820312 31.457031 40.339844 32.25 39.878906 L 33.6875 39.042969 L 33.988281 39.488281 C 34.40625 40.132812 35.328125 41.011719 35.882812 41.304688 C 37.480469 42.148438 39.667969 42.027344 40.75 41.058594 C 41.210938 40.640625 41.398438 40.203125 41.398438 39.558594 C 41.398438 38.980469 41.328125 38.726562 41.027344 38.289062 C 40.636719 37.734375 39.84375 37.265625 37.589844 36.289062 C 35.011719 35.179688 33.898438 34.488281 32.882812 33.394531 C 32.296875 32.757812 31.742188 31.742188 31.511719 30.894531 C 31.320312 30.1875 31.273438 28.417969 31.421875 27.703125 C 31.957031 25.210938 33.835938 23.472656 36.550781 22.957031 C 37.429688 22.789062 39.480469 22.855469 40.34375 23.066406 Z M 40.34375 23.066406 "/>
  </g>

  <g id="styledComponents">
    <path style=" stroke:none;fill-rule:nonzero;fill:rgb(100%,80.784314%,74.901961%);fill-opacity:1;" d="M 28.652344 49.28125 C 28.726562 49.109375 28.917969 48.992188 29.054688 48.851562 C 31.152344 46.652344 33.269531 44.472656 35.339844 42.246094 C 35.984375 41.644531 36.484375 40.90625 36.800781 40.082031 C 37.113281 39.257812 37.234375 38.375 37.148438 37.496094 C 37.082031 37.121094 37 36.75 36.894531 36.382812 C 36.328125 36.917969 35.804688 37.40625 35.277344 37.898438 C 34.453125 38.660156 33.636719 39.429688 32.808594 40.183594 C 32.320312 40.683594 31.691406 41.019531 31.007812 41.152344 C 30.320312 41.289062 29.613281 41.210938 28.972656 40.933594 C 28.324219 40.695312 27.761719 40.269531 27.351562 39.714844 C 26.941406 39.160156 26.703125 38.496094 26.667969 37.808594 C 26.648438 37.71875 26.625 37.632812 26.59375 37.546875 C 25.960938 38.082031 25.359375 38.574219 24.761719 39.082031 L 12.328125 49.617188 C 12.242188 49.691406 12.148438 49.78125 12.070312 49.851562 L 28.644531 49.851562 L 28.617188 49.835938 C 28.53125 49.773438 28.578125 49.445312 28.652344 49.28125 Z M 28.652344 49.28125 "/>
    <path style=" stroke:none;fill-rule:nonzero;fill:rgb(100%,80.784314%,74.901961%);fill-opacity:1;" d="M 11.308594 49.28125 C 11.457031 49.089844 11.636719 48.921875 11.835938 48.789062 L 29.042969 34.191406 C 30.214844 33.195312 31.382812 32.191406 32.546875 31.1875 C 32.691406 31.085938 32.804688 30.949219 32.871094 30.785156 C 33.148438 29.574219 33.1875 28.320312 32.988281 27.09375 C 32.808594 27.21875 32.710938 27.269531 32.628906 27.359375 C 31.222656 28.617188 29.820312 29.890625 28.402344 31.144531 C 27.933594 31.617188 27.328125 31.925781 26.671875 32.03125 C 26.015625 32.136719 25.339844 32.03125 24.746094 31.730469 C 24.140625 31.445312 23.636719 30.984375 23.292969 30.410156 C 22.949219 29.835938 22.785156 29.171875 22.820312 28.503906 L 22.820312 27.925781 C 22.558594 28.113281 22.371094 28.242188 22.195312 28.386719 C 15.308594 33.898438 8.421875 39.40625 1.539062 44.914062 C 1.230469 45.160156 0.859375 45.714844 0.449219 45.175781 C 0.0429688 44.640625 0.664062 44.417969 0.976562 44.167969 C 8.3125 38.28125 15.65625 32.398438 23 26.519531 C 24.199219 25.558594 24.277344 25.160156 23.496094 23.636719 L 23.035156 24.070312 C 21.761719 25.253906 20.472656 26.421875 19.21875 27.625 C 18.707031 28.121094 18.0625 28.460938 17.363281 28.609375 C 16.664062 28.753906 15.9375 28.699219 15.265625 28.449219 C 14.597656 28.199219 14.011719 27.765625 13.578125 27.195312 C 13.144531 26.628906 12.882812 25.949219 12.820312 25.238281 C 12.582031 25.417969 12.375 25.546875 12.179688 25.699219 L 1.289062 34.140625 C 1.101562 34.324219 0.886719 34.480469 0.652344 34.601562 C 0.476562 34.65625 0.289062 34.644531 0.117188 34.574219 L 0.117188 49.859375 L 11.289062 49.859375 C 11.246094 49.769531 11.226562 49.667969 11.230469 49.570312 C 11.234375 49.46875 11.261719 49.371094 11.308594 49.28125 Z M 11.308594 49.28125 "/>
    <path style=" stroke:none;fill-rule:nonzero;fill:rgb(100%,38.039216%,58.823529%);fill-opacity:1;" d="M 41.484375 0.757812 C 41.183594 1.75 40.886719 2.746094 40.621094 3.753906 C 40.375 4.464844 40.402344 5.238281 40.703125 5.929688 C 41 6.621094 41.542969 7.175781 42.226562 7.484375 C 44.324219 8.585938 46.683594 9.082031 49.046875 8.914062 L 49.046875 0.925781 C 49.019531 0.75 49.027344 0.574219 49.074219 0.402344 C 49.125 0.304688 49.1875 0.214844 49.261719 0.136719 L 41.476562 0.136719 C 41.597656 0.273438 41.558594 0.519531 41.484375 0.757812 Z M 41.484375 0.757812 "/>
    <path style=" stroke:none;fill-rule:nonzero;fill:rgb(100%,52.941176%,68.627451%);fill-opacity:1;" d="M 25.855469 17.914062 C 25.816406 18.804688 25.503906 19.664062 24.960938 20.371094 C 23.015625 22.878906 20.785156 25.152344 18.308594 27.140625 C 17.910156 27.511719 17.402344 27.742188 16.863281 27.808594 C 16.324219 27.871094 15.777344 27.765625 15.300781 27.5 C 14.828125 27.296875 14.429688 26.953125 14.160156 26.515625 C 13.890625 26.078125 13.765625 25.566406 13.796875 25.054688 C 13.855469 24.425781 14.117188 23.832031 14.542969 23.363281 C 17.308594 20.726562 20.308594 18.339844 23.503906 16.234375 C 23.710938 16.070312 23.96875 15.976562 24.234375 15.964844 C 24.5 15.957031 24.761719 16.027344 24.984375 16.175781 C 25.273438 16.355469 25.511719 16.613281 25.664062 16.921875 C 25.820312 17.226562 25.882812 17.570312 25.855469 17.914062 Z M 25.855469 17.914062 "/>
    <path style=" stroke:none;fill-rule:nonzero;fill:rgb(100%,52.941176%,68.627451%);fill-opacity:1;" d="M 23.714844 28.734375 C 23.671875 28.339844 23.722656 27.941406 23.863281 27.570312 C 24 27.199219 24.222656 26.863281 24.511719 26.59375 C 27.222656 24.09375 30.132812 21.816406 33.207031 19.785156 C 33.300781 19.726562 33.386719 19.667969 33.488281 19.605469 C 33.757812 19.410156 34.082031 19.3125 34.414062 19.324219 C 34.746094 19.335938 35.066406 19.457031 35.320312 19.667969 C 35.566406 19.878906 35.742188 20.160156 35.816406 20.472656 C 35.894531 20.785156 35.871094 21.117188 35.75 21.417969 C 35.363281 22.714844 34.644531 23.886719 33.664062 24.824219 C 31.679688 26.78125 29.65625 28.695312 27.59375 30.574219 C 27.285156 30.890625 26.878906 31.097656 26.4375 31.160156 C 25.996094 31.222656 25.546875 31.136719 25.160156 30.914062 C 24.753906 30.703125 24.40625 30.394531 24.15625 30.011719 C 23.902344 29.632812 23.75 29.191406 23.714844 28.734375 Z M 23.714844 28.734375 "/>
    <path style=" stroke:none;fill-rule:nonzero;fill:rgb(100%,52.941176%,68.627451%);fill-opacity:1;" d="M 36.597656 29.914062 C 36.097656 30.449219 35.582031 30.960938 35.101562 31.507812 C 34.957031 31.722656 34.839844 31.949219 34.746094 32.1875 C 35.011719 32.265625 35.320312 32.472656 35.535156 32.402344 C 36.625 32.035156 37.6875 31.59375 38.886719 31.132812 C 38.625 31.734375 38.429688 32.285156 38.152344 32.792969 C 37.011719 34.710938 35.585938 36.4375 33.917969 37.921875 C 33.285156 38.53125 32.628906 39.117188 31.945312 39.671875 C 31.585938 39.972656 31.152344 40.171875 30.6875 40.246094 C 30.226562 40.324219 29.75 40.277344 29.3125 40.109375 C 28.871094 39.941406 28.484375 39.664062 28.191406 39.296875 C 27.898438 38.929688 27.703125 38.496094 27.632812 38.03125 C 27.605469 37.773438 27.628906 37.511719 27.703125 37.261719 C 27.773438 37.011719 27.894531 36.78125 28.058594 36.578125 C 30.488281 33.941406 33.265625 31.644531 36.3125 29.753906 C 36.351562 29.738281 36.390625 29.730469 36.429688 29.730469 Z M 36.597656 29.914062 "/>
    <path style=" stroke:none;fill-rule:nonzero;fill:rgb(100%,38.039216%,58.823529%);fill-opacity:1;" d="M 40.695312 22.804688 L 43.75 9.234375 L 45.894531 9.734375 L 44.789062 13.09375 C 43.757812 16.21875 42.710938 19.34375 41.707031 22.472656 C 41.507812 23.050781 41.253906 23.15625 40.695312 22.804688 Z M 40.695312 22.804688 "/>
    <path style=" stroke:none;fill-rule:nonzero;fill:rgb(100%,38.039216%,58.823529%);fill-opacity:1;" d="M 37.242188 30.785156 C 37.566406 29.550781 37.890625 28.410156 38.160156 27.257812 C 38.425781 26.136719 38.925781 25.089844 39.636719 24.183594 C 40.070312 23.613281 40.554688 23.839844 41.054688 23.964844 C 41.515625 24.078125 41.632812 24.414062 41.652344 24.855469 C 41.722656 26.082031 41.351562 27.289062 40.601562 28.261719 C 39.707031 29.367188 38.554688 30.234375 37.242188 30.785156 Z M 37.242188 30.785156 "/>
    <path style=" stroke:none;fill-rule:nonzero;fill:rgb(0%,0%,0%);fill-opacity:1;" d="M 49.976562 1.597656 C 50.003906 1.199219 49.992188 0.800781 49.945312 0.40625 C 49.910156 0.292969 49.835938 0.199219 49.738281 0.136719 C 49.660156 0.0703125 49.566406 0.0234375 49.46875 0 C 49.410156 -0.0078125 49.332031 0.0507812 49.253906 0.132812 C 49.179688 0.214844 49.117188 0.300781 49.066406 0.398438 C 49.019531 0.570312 49.011719 0.75 49.039062 0.925781 L 49.039062 8.910156 C 46.675781 9.078125 44.316406 8.582031 42.21875 7.480469 C 41.535156 7.171875 40.992188 6.617188 40.695312 5.925781 C 40.394531 5.234375 40.367188 4.460938 40.613281 3.75 C 40.878906 2.742188 41.175781 1.746094 41.476562 0.753906 C 41.550781 0.515625 41.589844 0.269531 41.476562 0.132812 C 41.414062 0.0625 41.328125 0.0234375 41.238281 0.015625 C 41.117188 0.0195312 41.003906 0.0585938 40.910156 0.132812 C 40.777344 0.210938 40.671875 0.328125 40.605469 0.472656 C 40.25 1.542969 39.933594 2.625 39.660156 3.71875 C 39.558594 4.148438 39.53125 4.59375 39.578125 5.03125 C 39.648438 5.828125 39.945312 6.589844 40.433594 7.222656 C 40.921875 7.855469 41.582031 8.335938 42.332031 8.605469 C 42.671875 8.746094 42.867188 8.882812 42.773438 9.328125 C 42.644531 9.894531 42.515625 10.457031 42.386719 11.023438 C 41.511719 14.859375 40.644531 18.695312 39.777344 22.535156 C 39.753906 22.707031 39.679688 22.867188 39.5625 22.992188 C 38.992188 23.445312 38.511719 24.003906 38.148438 24.636719 C 37.6875 25.46875 37.367188 26.375 37.203125 27.3125 C 37.171875 27.613281 37.0625 27.898438 36.890625 28.144531 C 36.714844 28.390625 36.480469 28.585938 36.207031 28.714844 C 35.460938 29.09375 34.777344 29.578125 33.953125 30.085938 C 34.007812 29.09375 33.996094 28.097656 33.917969 27.101562 C 33.855469 26.796875 33.871094 26.480469 33.957031 26.183594 C 34.046875 25.882812 34.207031 25.613281 34.425781 25.390625 C 35.515625 24.308594 36.292969 22.957031 36.671875 21.472656 C 36.785156 21.128906 36.816406 20.761719 36.765625 20.402344 C 36.710938 20.042969 36.574219 19.703125 36.363281 19.410156 C 36.152344 19.113281 35.875 18.871094 35.554688 18.703125 C 35.234375 18.535156 34.878906 18.441406 34.515625 18.4375 C 33.929688 18.429688 33.351562 18.59375 32.855469 18.90625 C 31.152344 20.070312 29.480469 21.277344 27.835938 22.527344 C 26.859375 23.261719 25.941406 24.074219 24.992188 24.847656 C 24.953125 24.804688 24.917969 24.753906 24.886719 24.703125 C 24.871094 24.570312 24.835938 24.441406 24.78125 24.320312 C 23.992188 23.097656 24.539062 22.210938 25.398438 21.296875 C 26.292969 20.359375 26.789062 19.113281 26.777344 17.816406 C 26.804688 17.15625 26.597656 16.507812 26.195312 15.984375 C 25.976562 15.71875 25.710938 15.496094 25.410156 15.335938 C 24.984375 15.101562 24.496094 15.003906 24.011719 15.054688 C 23.527344 15.105469 23.070312 15.304688 22.703125 15.625 L 22.203125 15.980469 C 21.066406 16.796875 19.914062 17.589844 18.820312 18.460938 C 17.222656 19.734375 15.660156 21.054688 14.132812 22.414062 C 13.417969 23.042969 12.898438 23.902344 12.15625 24.488281 C 8.292969 27.539062 4.386719 30.535156 0.496094 33.550781 C 0.363281 33.632812 0.238281 33.730469 0.128906 33.839844 C 0.121094 33.855469 0.109375 33.875 0.101562 33.890625 C 0.0195312 34.082031 -0.0507812 34.398438 0.046875 34.515625 C 0.0703125 34.539062 0.0976562 34.558594 0.128906 34.574219 C 0.300781 34.644531 0.488281 34.652344 0.667969 34.601562 C 0.898438 34.480469 1.113281 34.324219 1.300781 34.140625 L 12.195312 25.699219 C 12.386719 25.546875 12.59375 25.410156 12.832031 25.238281 C 12.894531 25.949219 13.160156 26.628906 13.59375 27.195312 C 14.023438 27.765625 14.609375 28.199219 15.28125 28.449219 C 15.949219 28.695312 16.675781 28.753906 17.375 28.605469 C 18.074219 28.460938 18.71875 28.121094 19.230469 27.625 C 20.480469 26.421875 21.773438 25.253906 23.046875 24.070312 L 23.511719 23.632812 C 24.289062 25.15625 24.210938 25.558594 23.015625 26.519531 C 15.664062 32.402344 8.316406 38.285156 0.976562 44.167969 C 0.664062 44.417969 0.046875 44.644531 0.449219 45.179688 C 0.855469 45.710938 1.230469 45.164062 1.539062 44.914062 C 8.425781 39.414062 15.308594 33.90625 22.1875 28.390625 C 22.367188 28.246094 22.554688 28.121094 22.8125 27.933594 L 22.8125 28.511719 C 22.777344 29.179688 22.941406 29.84375 23.285156 30.417969 C 23.628906 30.992188 24.136719 31.449219 24.742188 31.738281 C 25.332031 32.039062 26.007812 32.144531 26.664062 32.039062 C 27.320312 31.933594 27.929688 31.621094 28.398438 31.148438 C 29.8125 29.898438 31.214844 28.625 32.625 27.363281 C 32.710938 27.285156 32.816406 27.222656 32.980469 27.097656 C 33.183594 28.324219 33.140625 29.582031 32.863281 30.792969 C 32.796875 30.953125 32.683594 31.09375 32.539062 31.191406 C 31.375 32.199219 30.207031 33.199219 29.035156 34.195312 L 11.835938 48.796875 C 11.636719 48.929688 11.457031 49.097656 11.308594 49.289062 C 11.261719 49.375 11.238281 49.472656 11.234375 49.574219 C 11.230469 49.671875 11.246094 49.769531 11.289062 49.859375 C 11.367188 49.921875 11.460938 49.964844 11.5625 49.984375 C 11.660156 50.003906 11.761719 50 11.859375 49.972656 C 11.9375 49.953125 12.007812 49.910156 12.066406 49.859375 C 12.15625 49.785156 12.246094 49.695312 12.324219 49.621094 L 24.757812 39.085938 C 25.355469 38.582031 25.960938 38.082031 26.589844 37.550781 C 26.621094 37.636719 26.648438 37.722656 26.667969 37.8125 C 26.703125 38.503906 26.941406 39.164062 27.347656 39.722656 C 27.757812 40.277344 28.324219 40.699219 28.96875 40.9375 C 29.609375 41.214844 30.320312 41.292969 31.003906 41.160156 C 31.6875 41.027344 32.316406 40.6875 32.804688 40.1875 C 33.632812 39.433594 34.453125 38.667969 35.273438 37.902344 C 35.808594 37.410156 36.328125 36.917969 36.890625 36.386719 C 36.996094 36.753906 37.082031 37.125 37.144531 37.503906 C 37.226562 38.375 37.105469 39.257812 36.792969 40.078125 C 36.480469 40.898438 35.980469 41.636719 35.335938 42.230469 C 33.265625 44.460938 31.148438 46.640625 29.050781 48.839844 C 28.914062 48.980469 28.726562 49.097656 28.652344 49.269531 C 28.574219 49.4375 28.527344 49.769531 28.617188 49.839844 L 28.640625 49.859375 C 28.828125 49.949219 29.039062 49.980469 29.246094 49.949219 C 29.304688 49.9375 29.355469 49.90625 29.390625 49.859375 C 29.441406 49.804688 29.488281 49.742188 29.535156 49.695312 C 31.234375 47.9375 32.945312 46.1875 34.632812 44.417969 C 35.3125 43.730469 35.953125 43 36.550781 42.234375 C 37.328125 41.375 37.84375 40.308594 38.035156 39.167969 C 38.230469 38.023438 38.089844 36.847656 37.640625 35.777344 C 37.589844 35.539062 37.636719 35.292969 37.769531 35.089844 C 37.886719 34.890625 38.015625 34.695312 38.148438 34.503906 C 38.570312 33.953125 38.921875 33.355469 39.195312 32.71875 C 39.722656 31.15625 40.535156 29.703125 41.585938 28.433594 C 42.070312 27.820312 42.402344 27.101562 42.558594 26.335938 C 42.714844 25.566406 42.6875 24.777344 42.480469 24.023438 C 42.40625 23.738281 42.40625 23.4375 42.480469 23.148438 C 43.382812 20.351562 44.3125 17.5625 45.234375 14.773438 L 46.464844 11.035156 L 46.847656 9.878906 C 47.65625 9.878906 48.421875 9.863281 49.183594 9.878906 C 49.8125 9.898438 50.007812 9.601562 50 8.984375 C 49.960938 6.523438 49.976562 4.058594 49.976562 1.597656 Z M 18.308594 27.140625 C 17.90625 27.511719 17.402344 27.742188 16.863281 27.808594 C 16.320312 27.871094 15.773438 27.765625 15.300781 27.496094 C 14.828125 27.296875 14.429688 26.953125 14.160156 26.515625 C 13.890625 26.078125 13.761719 25.566406 13.796875 25.054688 C 13.851562 24.425781 14.113281 23.832031 14.539062 23.363281 C 17.308594 20.726562 20.308594 18.339844 23.5 16.234375 C 23.675781 16.113281 23.875 16.027344 24.082031 15.984375 C 24.222656 15.960938 24.367188 15.960938 24.507812 15.984375 C 24.675781 16.019531 24.835938 16.082031 24.980469 16.175781 C 25.273438 16.355469 25.507812 16.613281 25.664062 16.921875 C 25.816406 17.230469 25.882812 17.574219 25.851562 17.914062 C 25.816406 18.808594 25.503906 19.664062 24.960938 20.371094 C 23.015625 22.882812 20.78125 25.152344 18.308594 27.140625 Z M 27.589844 30.585938 C 27.28125 30.90625 26.875 31.109375 26.433594 31.171875 C 25.992188 31.234375 25.542969 31.148438 25.15625 30.929688 C 24.75 30.714844 24.402344 30.40625 24.148438 30.023438 C 23.898438 29.640625 23.746094 29.199219 23.710938 28.742188 C 23.667969 28.347656 23.71875 27.949219 23.859375 27.578125 C 23.996094 27.207031 24.21875 26.871094 24.511719 26.601562 C 27.21875 24.101562 30.128906 21.824219 33.207031 19.792969 C 33.296875 19.734375 33.382812 19.675781 33.484375 19.613281 C 33.753906 19.417969 34.082031 19.320312 34.410156 19.332031 C 34.742188 19.34375 35.0625 19.464844 35.316406 19.675781 C 35.5625 19.882812 35.738281 20.167969 35.816406 20.480469 C 35.890625 20.792969 35.867188 21.125 35.746094 21.421875 C 35.359375 22.71875 34.640625 23.894531 33.664062 24.832031 C 31.691406 26.796875 29.644531 28.691406 27.59375 30.578125 Z M 38.144531 32.800781 C 37.007812 34.714844 35.582031 36.441406 33.917969 37.921875 C 33.285156 38.53125 32.628906 39.117188 31.945312 39.671875 C 31.585938 39.972656 31.152344 40.171875 30.6875 40.25 C 30.226562 40.324219 29.75 40.277344 29.3125 40.109375 C 28.871094 39.945312 28.484375 39.664062 28.191406 39.296875 C 27.898438 38.933594 27.703125 38.496094 27.632812 38.03125 C 27.605469 37.773438 27.628906 37.511719 27.703125 37.261719 C 27.773438 37.011719 27.894531 36.78125 28.058594 36.578125 C 30.488281 33.941406 33.265625 31.644531 36.3125 29.753906 C 36.351562 29.738281 36.390625 29.730469 36.429688 29.730469 L 36.609375 29.910156 C 36.109375 30.445312 35.59375 30.953125 35.113281 31.503906 C 34.96875 31.714844 34.851562 31.941406 34.757812 32.179688 C 35.019531 32.261719 35.332031 32.46875 35.542969 32.394531 C 36.40625 32.105469 37.253906 31.769531 38.164062 31.410156 L 38.898438 31.125 C 38.621094 31.734375 38.425781 32.285156 38.148438 32.792969 Z M 40.597656 28.273438 C 39.929688 29.121094 39.097656 29.824219 38.144531 30.332031 C 37.851562 30.496094 37.550781 30.648438 37.242188 30.792969 C 37.558594 29.578125 37.875 28.449219 38.144531 27.3125 L 38.15625 27.265625 C 38.421875 26.144531 38.925781 25.097656 39.632812 24.191406 C 40.066406 23.621094 40.550781 23.847656 41.050781 23.972656 C 41.511719 24.085938 41.628906 24.421875 41.648438 24.863281 C 41.71875 26.085938 41.347656 27.296875 40.601562 28.269531 Z M 44.777344 13.097656 C 43.742188 16.222656 42.699219 19.347656 41.691406 22.476562 C 41.503906 23.0625 41.246094 23.171875 40.691406 22.816406 L 43.339844 11.042969 L 43.746094 9.238281 L 45.886719 9.738281 L 45.457031 11.042969 Z M 44.777344 13.097656 "/>
  </g>

  <g id="git">
    <path style=" stroke:none;fill-rule:nonzero;fill:rgb(87.058824%,29.803922%,21.176471%);fill-opacity:1;" d="M 49.058594 22.773438 L 27.226562 0.941406 C 25.96875 -0.3125 23.929688 -0.3125 22.671875 0.941406 L 18.140625 5.476562 L 23.890625 11.226562 C 25.226562 10.773438 26.757812 11.078125 27.824219 12.144531 C 28.894531 13.214844 29.195312 14.761719 28.734375 16.101562 L 34.273438 21.644531 C 35.617188 21.183594 37.164062 21.480469 38.234375 22.554688 C 39.730469 24.050781 39.730469 26.472656 38.234375 27.972656 C 36.738281 29.46875 34.3125 29.46875 32.8125 27.972656 C 31.6875 26.84375 31.410156 25.191406 31.980469 23.804688 L 26.8125 18.636719 L 26.8125 32.238281 C 27.1875 32.421875 27.527344 32.667969 27.824219 32.960938 C 29.320312 34.457031 29.320312 36.882812 27.824219 38.378906 C 26.328125 39.878906 23.902344 39.878906 22.40625 38.378906 C 20.910156 36.882812 20.910156 34.457031 22.40625 32.960938 C 22.765625 32.601562 23.191406 32.320312 23.660156 32.125 L 23.660156 18.398438 C 23.191406 18.207031 22.765625 17.921875 22.40625 17.5625 C 21.273438 16.429688 21 14.765625 21.582031 13.371094 L 15.910156 7.703125 L 0.945312 22.671875 C -0.316406 23.929688 -0.316406 25.96875 0.945312 27.226562 L 22.773438 49.054688 C 24.03125 50.3125 26.070312 50.3125 27.328125 49.054688 L 49.058594 27.328125 C 50.3125 26.070312 50.3125 24.03125 49.058594 22.773438 Z M 49.058594 22.773438 "/>
  </g>

  <!-- social -->
  <g id="mail">
    <path style=" stroke:none;fill-rule:evenodd;fill:currentColor;fill-opacity:1;" d="M 0.585938 2.074219 C 0.714844 1.484375 1.019531 0.957031 1.464844 0.582031 C 1.90625 0.203125 2.453125 0 3.019531 0 L 17.980469 0 C 18.546875 0 19.09375 0.203125 19.535156 0.582031 C 19.980469 0.957031 20.285156 1.484375 20.414062 2.074219 L 10.5 8.550781 Z M 0.523438 3.597656 L 0.523438 13.066406 L 7.761719 8.324219 Z M 8.953125 9.109375 L 0.761719 14.476562 C 0.964844 14.933594 1.285156 15.316406 1.6875 15.585938 C 2.082031 15.859375 2.546875 16 3.019531 16 L 17.980469 16 C 18.453125 16 18.917969 15.859375 19.3125 15.585938 C 19.714844 15.316406 20.03125 14.929688 20.238281 14.476562 L 12.042969 9.105469 L 10.5 10.117188 L 8.953125 9.105469 Z M 13.238281 8.324219 L 20.476562 13.066406 L 20.476562 3.597656 Z M 13.238281 8.324219 "/>
  </g>

  <g id="telegram">
    <path id="Vector" d="M16.7521 1.28235L14.2169 13.2385C14.0254 14.0823 13.5268 14.2922 12.8181 13.895L8.9549 11.0483L7.09109 12.8413C6.88467 13.0477 6.71245 13.22 6.31461 13.22L6.59244 9.28601L13.7518 2.81665C14.0632 2.53943 13.684 2.38525 13.2682 2.66309L4.41721 8.23645L0.606812 7.04358C-0.221878 6.78491 -0.236877 6.21484 0.779633 5.81702L15.6834 0.0749512C16.3735 -0.183594 16.9771 0.228027 16.7521 1.28235Z" fill="currentColor" fill-opacity="1.000000" fill-rule="nonzero"/>
  </g>

  <g id="github">
    <path style=" stroke:none;fill-rule:evenodd;fill:currentColor;fill-opacity:1;" d="M 10.5 0 C 4.976562 0 0.5 4.628906 0.5 10.34375 C 0.5 14.921875 3.363281 18.789062 7.335938 20.160156 C 7.835938 20.25 8.023438 19.941406 8.023438 19.667969 C 8.023438 19.421875 8.011719 18.609375 8.011719 17.742188 C 5.5 18.21875 4.851562 17.109375 4.648438 16.527344 C 4.539062 16.226562 4.050781 15.308594 3.625 15.066406 C 3.273438 14.871094 2.773438 14.390625 3.613281 14.378906 C 4.398438 14.367188 4.960938 15.128906 5.148438 15.441406 C 6.050781 17.003906 7.488281 16.566406 8.0625 16.292969 C 8.148438 15.621094 8.414062 15.167969 8.699219 14.910156 C 6.476562 14.652344 4.148438 13.757812 4.148438 9.800781 C 4.148438 8.675781 4.539062 7.746094 5.175781 7.023438 C 5.074219 6.761719 4.726562 5.703125 5.273438 4.28125 C 5.273438 4.28125 6.113281 4.007812 8.023438 5.339844 C 8.824219 5.109375 9.675781 4.992188 10.523438 4.992188 C 11.375 4.992188 12.226562 5.109375 13.023438 5.339844 C 14.9375 3.996094 15.773438 4.28125 15.773438 4.28125 C 16.324219 5.703125 15.976562 6.761719 15.875 7.023438 C 16.511719 7.746094 16.898438 8.664062 16.898438 9.800781 C 16.898438 13.773438 14.5625 14.652344 12.335938 14.910156 C 12.699219 15.234375 13.011719 15.851562 13.011719 16.824219 C 13.011719 18.207031 13 19.320312 13 19.667969 C 13 19.941406 13.1875 20.261719 13.6875 20.160156 C 15.671875 19.464844 17.398438 18.144531 18.621094 16.386719 C 19.84375 14.625 20.5 12.511719 20.5 10.34375 C 20.5 4.628906 16.023438 0 10.5 0 Z M 10.5 0 "/>
  </g>

  <g id="discord">
    <path style=" stroke:none;fill-rule:nonzero;fill:currentColor;fill-opacity:1;" d="M 17.210938 2.320312 C 17.207031 2.308594 17.195312 2.300781 17.1875 2.296875 C 15.933594 1.714844 14.613281 1.300781 13.257812 1.0625 C 13.234375 1.058594 13.207031 1.070312 13.195312 1.09375 C 13.015625 1.425781 12.851562 1.761719 12.707031 2.109375 C 11.246094 1.886719 9.757812 1.886719 8.296875 2.109375 C 8.148438 1.761719 7.984375 1.421875 7.800781 1.09375 C 7.785156 1.070312 7.761719 1.058594 7.734375 1.0625 C 6.378906 1.300781 5.058594 1.714844 3.808594 2.296875 C 3.796875 2.300781 3.789062 2.308594 3.78125 2.316406 C 1.28125 6.097656 0.597656 9.785156 0.933594 13.425781 C 0.933594 13.445312 0.945312 13.460938 0.957031 13.472656 C 2.414062 14.5625 4.042969 15.394531 5.777344 15.933594 C 5.800781 15.941406 5.828125 15.933594 5.84375 15.914062 C 6.214844 15.398438 6.546875 14.859375 6.828125 14.289062 C 6.835938 14.273438 6.835938 14.257812 6.832031 14.238281 C 6.824219 14.222656 6.8125 14.210938 6.796875 14.203125 C 6.277344 14.003906 5.773438 13.761719 5.289062 13.480469 C 5.273438 13.46875 5.261719 13.449219 5.261719 13.429688 C 5.257812 13.40625 5.269531 13.386719 5.285156 13.375 C 5.386719 13.296875 5.488281 13.21875 5.582031 13.136719 C 5.601562 13.125 5.625 13.121094 5.644531 13.128906 C 8.804688 14.589844 12.222656 14.589844 15.339844 13.128906 C 15.363281 13.121094 15.386719 13.121094 15.40625 13.136719 C 15.5 13.21875 15.601562 13.296875 15.703125 13.375 C 15.722656 13.386719 15.730469 13.40625 15.730469 13.429688 C 15.726562 13.449219 15.71875 13.46875 15.699219 13.480469 C 15.21875 13.761719 14.714844 14.003906 14.195312 14.203125 C 14.175781 14.210938 14.164062 14.222656 14.15625 14.238281 C 14.152344 14.257812 14.152344 14.273438 14.160156 14.289062 C 14.449219 14.855469 14.777344 15.394531 15.144531 15.910156 C 15.160156 15.933594 15.1875 15.941406 15.214844 15.933594 C 16.949219 15.398438 18.582031 14.5625 20.039062 13.472656 C 20.054688 13.460938 20.0625 13.445312 20.0625 13.425781 C 20.464844 9.21875 19.390625 5.558594 17.210938 2.320312 Z M 7.300781 11.207031 C 6.351562 11.207031 5.566406 10.324219 5.566406 9.242188 C 5.566406 8.15625 6.335938 7.273438 7.300781 7.273438 C 8.273438 7.273438 9.050781 8.164062 9.035156 9.242188 C 9.035156 10.324219 8.265625 11.207031 7.300781 11.207031 Z M 13.710938 11.207031 C 12.761719 11.207031 11.976562 10.324219 11.976562 9.242188 C 11.976562 8.15625 12.746094 7.273438 13.710938 7.273438 C 14.683594 7.273438 15.460938 8.164062 15.445312 9.242188 C 15.445312 10.324219 14.683594 11.207031 13.710938 11.207031 Z M 13.710938 11.207031 "/>
  </g>

  <!-- arrows -->
  <g id="arrowGoTop">
    <path d="M6.80719 4.28064L6.80719 15L9.19281 15L9.19281 4.28064L14.3134 9.08118L16 7.5L8 0L0 7.5L1.68658 9.08118L6.80719 4.28064Z" fill="#FFFFFF" fill-opacity="1.000000" fill-rule="nonzero"/>
  </g>

</svg>
